<svg xmlns="http://www.w3.org/2000/svg" xmlns:xlink="http://www.w3.org/1999/xlink" width="500" zoomAndPan="magnify" viewBox="0 0 375 374.999991" height="500" preserveAspectRatio="xMidYMid meet" version="1.0"><defs><clipPath id="1dd5a6694a"><path d="M 110.738281 141.921875 L 264.488281 141.921875 L 264.488281 233.421875 L 110.738281 233.421875 Z M 110.738281 141.921875 " clip-rule="nonzero"/></clipPath></defs><g clip-path="url(#1dd5a6694a)"><path fill="#c49a56" d="M 247.023438 156.207031 C 241.285156 157.460938 235.636719 159.195312 230.125 161.332031 C 224.644531 163.539062 219.320312 166.140625 214.148438 169.019531 C 213.609375 169.328125 213.070312 169.640625 212.535156 169.953125 C 209.03125 172.003906 205.613281 174.203125 202.265625 176.503906 C 202.105469 176.609375 201.949219 176.726562 201.789062 176.832031 L 190.621094 168.40625 L 155.539062 141.921875 L 122.160156 166.792969 L 110.761719 175.292969 L 110.761719 233.394531 L 161.328125 233.394531 L 162.484375 231.636719 C 163.035156 230.75 163.605469 229.875 164.171875 228.996094 C 165.710938 226.625 167.308594 224.296875 168.9375 221.96875 C 168.945312 221.957031 168.957031 221.949219 168.960938 221.9375 C 169.039062 221.832031 169.117188 221.714844 169.195312 221.609375 C 172.402344 217.0625 175.796875 212.628906 179.328125 208.308594 C 182.921875 203.914062 186.695312 199.660156 190.617188 195.5625 C 190.640625 195.535156 190.671875 195.5 190.699219 195.472656 C 193.066406 193.027344 195.472656 190.609375 197.960938 188.269531 C 199.289062 187.015625 200.640625 185.78125 202.015625 184.574219 C 202.378906 184.25 202.738281 183.9375 203.105469 183.617188 C 204.441406 182.464844 205.792969 181.332031 207.160156 180.21875 C 210.226562 177.714844 213.375 175.316406 216.636719 173.0625 C 216.640625 173.058594 216.640625 173.054688 216.644531 173.054688 C 221.375 169.824219 226.292969 166.847656 231.410156 164.226562 C 236.554688 161.683594 241.894531 159.496094 247.402344 157.757812 C 252.945312 156.125 258.640625 154.980469 264.4375 154.363281 C 258.617188 154.433594 252.789062 155.058594 247.023438 156.207031 Z M 190.621094 185.257812 C 188.820312 186.726562 187.046875 188.230469 185.289062 189.753906 C 180.804688 193.648438 176.476562 197.726562 172.316406 201.96875 C 168.6875 205.671875 165.160156 209.480469 161.75 213.410156 C 161.261719 213.980469 160.761719 214.558594 160.273438 215.144531 C 158.367188 217.386719 156.5 219.660156 154.675781 221.976562 L 122.160156 221.976562 L 122.160156 181.019531 L 155.488281 156.1875 L 190.621094 182.714844 L 192.246094 183.941406 C 191.703125 184.378906 191.164062 184.816406 190.621094 185.257812 Z M 190.621094 185.257812 " fill-opacity="1" fill-rule="nonzero"/></g><path fill="#c49a56" d="M 147.066406 176.882812 L 153.808594 176.882812 L 153.808594 183.640625 L 147.066406 183.640625 Z M 147.066406 176.882812 " fill-opacity="1" fill-rule="nonzero"/><path fill="#c49a56" d="M 157.113281 176.882812 L 163.855469 176.882812 L 163.855469 183.640625 L 157.113281 183.640625 Z M 157.113281 176.882812 " fill-opacity="1" fill-rule="nonzero"/><path fill="#c49a56" d="M 147.066406 186.703125 L 153.808594 186.703125 L 153.808594 193.460938 L 147.066406 193.460938 Z M 147.066406 186.703125 " fill-opacity="1" fill-rule="nonzero"/><path fill="#c49a56" d="M 157.113281 186.703125 L 163.855469 186.703125 L 163.855469 193.460938 L 157.113281 193.460938 Z M 157.113281 186.703125 " fill-opacity="1" fill-rule="nonzero"/></svg>